<svg width="200" height="33" viewBox="0 0 200 33" fill="none" xmlns="http://www.w3.org/2000/svg">
<g filter="url(#filter0_d_13_6)">
<path d="M2.22443 25V3.18182H6.83736V12.1839H16.2017V3.18182H20.804V25H16.2017V15.9872H6.83736V25H2.22443ZM29.1882 25.3089C28.1442 25.3089 27.2138 25.1278 26.397 24.7656C25.5803 24.3963 24.9339 23.853 24.4581 23.1357C23.9893 22.4112 23.755 21.5092 23.755 20.4297C23.755 19.5206 23.9219 18.7571 24.2557 18.1392C24.5895 17.5213 25.044 17.0241 25.6193 16.6477C26.1946 16.2713 26.848 15.9872 27.5795 15.7955C28.3182 15.6037 29.0923 15.4688 29.902 15.3906C30.8537 15.2912 31.6207 15.1989 32.2031 15.1136C32.7855 15.0213 33.2081 14.8864 33.4709 14.7088C33.7337 14.5312 33.8651 14.2685 33.8651 13.9205V13.8565C33.8651 13.1818 33.652 12.6598 33.2259 12.2905C32.8068 11.9212 32.2102 11.7365 31.4361 11.7365C30.6193 11.7365 29.9695 11.9176 29.4865 12.2798C29.0036 12.6349 28.6839 13.0824 28.5277 13.6222L24.3303 13.2812C24.5433 12.2869 24.9624 11.4276 25.5874 10.7031C26.2124 9.97159 27.0185 9.41051 28.0057 9.01989C29 8.62216 30.1506 8.4233 31.4574 8.4233C32.3665 8.4233 33.2365 8.52983 34.0675 8.7429C34.9055 8.95597 35.6477 9.28622 36.294 9.73366C36.9474 10.1811 37.4624 10.7564 37.8388 11.4595C38.2152 12.1555 38.4034 12.9901 38.4034 13.9631V25H34.0994V22.7308H33.9716C33.7088 23.2422 33.3572 23.6932 32.9169 24.0838C32.4766 24.4673 31.9474 24.7692 31.3295 24.9893C30.7116 25.2024 29.9979 25.3089 29.1882 25.3089ZM30.4879 22.1768C31.1555 22.1768 31.745 22.0455 32.2564 21.7827C32.7678 21.5128 33.169 21.1506 33.4602 20.696C33.7514 20.2415 33.897 19.7266 33.897 19.1513V17.4148C33.755 17.5071 33.5597 17.5923 33.3111 17.6705C33.0696 17.7415 32.7962 17.8089 32.4908 17.8729C32.1854 17.9297 31.88 17.983 31.5746 18.0327C31.2692 18.0753 30.9922 18.1143 30.7436 18.1499C30.2109 18.228 29.7457 18.3523 29.348 18.5227C28.9503 18.6932 28.6413 18.924 28.4212 19.2152C28.201 19.4993 28.0909 19.8544 28.0909 20.2805C28.0909 20.8984 28.3146 21.3707 28.7621 21.6974C29.2166 22.017 29.7919 22.1768 30.4879 22.1768ZM41.9244 25V8.63636H46.3242V11.4915H46.4947C46.793 10.4759 47.2937 9.70881 47.9968 9.19034C48.6999 8.66477 49.5096 8.40199 50.4258 8.40199C50.6531 8.40199 50.8981 8.41619 51.1609 8.4446C51.4237 8.47301 51.6545 8.51207 51.8533 8.56179V12.5888C51.6403 12.5249 51.3455 12.468 50.9691 12.4183C50.5927 12.3686 50.2482 12.3438 49.9357 12.3438C49.2681 12.3438 48.6715 12.4893 48.146 12.7805C47.6275 13.0646 47.2156 13.4624 46.9102 13.9737C46.6119 14.4851 46.4627 15.0746 46.4627 15.7422V25H41.9244ZM54.1998 25V8.63636H58.7381V25H54.1998ZM56.4796 6.52699C55.8049 6.52699 55.226 6.30327 54.7431 5.85582C54.2672 5.40128 54.0293 4.85795 54.0293 4.22585C54.0293 3.60085 54.2672 3.06463 54.7431 2.61719C55.226 2.16264 55.8049 1.93537 56.4796 1.93537C57.1543 1.93537 57.7296 2.16264 58.2054 2.61719C58.6884 3.06463 58.9299 3.60085 58.9299 4.22585C58.9299 4.85795 58.6884 5.40128 58.2054 5.85582C57.7296 6.30327 57.1543 6.52699 56.4796 6.52699ZM75.9886 13.3026L71.8338 13.5582C71.7628 13.2031 71.6101 12.8835 71.3757 12.5994C71.1413 12.3082 70.8324 12.0774 70.4489 11.907C70.0724 11.7294 69.6214 11.6406 69.0959 11.6406C68.3928 11.6406 67.7997 11.7898 67.3168 12.0881C66.8338 12.3793 66.5923 12.7699 66.5923 13.2599C66.5923 13.6506 66.7486 13.9808 67.0611 14.2507C67.3736 14.5206 67.9098 14.7372 68.6697 14.9006L71.6314 15.4972C73.2223 15.8239 74.4084 16.3494 75.1896 17.0739C75.9709 17.7983 76.3615 18.75 76.3615 19.929C76.3615 21.0014 76.0455 21.9425 75.4134 22.7521C74.7884 23.5618 73.929 24.1939 72.8352 24.6484C71.7486 25.0959 70.495 25.3196 69.0746 25.3196C66.9084 25.3196 65.1825 24.8686 63.897 23.9666C62.6186 23.0575 61.8693 21.8217 61.6491 20.2592L66.1129 20.0249C66.2479 20.6854 66.5746 21.1896 67.093 21.5376C67.6115 21.8786 68.2756 22.049 69.0852 22.049C69.8807 22.049 70.5199 21.8963 71.0028 21.5909C71.4929 21.2784 71.7415 20.8771 71.7486 20.3871C71.7415 19.9751 71.5675 19.6378 71.2266 19.375C70.8857 19.1051 70.3601 18.8991 69.6499 18.7571L66.8161 18.1925C65.218 17.8729 64.0284 17.3189 63.2472 16.5305C62.473 15.7422 62.0859 14.7372 62.0859 13.5156C62.0859 12.4645 62.37 11.5589 62.9382 10.799C63.5135 10.0391 64.3196 9.45312 65.3565 9.04119C66.4006 8.62926 67.6222 8.4233 69.0213 8.4233C71.0881 8.4233 72.7145 8.86009 73.9006 9.73366C75.0938 10.6072 75.7898 11.7969 75.9886 13.3026ZM83.7576 15.5398V25H79.2193V3.18182H83.6298V11.5234H83.8216C84.1909 10.5575 84.7875 9.80114 85.6113 9.25426C86.4352 8.70028 87.4686 8.4233 88.7115 8.4233C89.8478 8.4233 90.8386 8.67188 91.6838 9.16903C92.536 9.65909 93.1966 10.3658 93.6653 11.2891C94.1412 12.2053 94.3755 13.3026 94.3684 14.581V25H89.8301V15.3906C89.8372 14.3821 89.5815 13.5973 89.063 13.0362C88.5517 12.4751 87.8343 12.1946 86.911 12.1946C86.2931 12.1946 85.7463 12.326 85.2704 12.5888C84.8017 12.8516 84.4324 13.2351 84.1625 13.7393C83.8997 14.2365 83.7647 14.8366 83.7576 15.5398ZM99.0266 25V3.18182H101.019V14.9325H101.211L111.864 3.18182H114.485L105.163 13.2706L114.442 25H112.013L103.927 14.6555L101.019 17.9155V25H99.0266ZM127.224 18.7464V8.63636H129.12V25H127.224V22.2834H127.074C126.691 23.1214 126.084 23.821 125.253 24.3821C124.422 24.9361 123.406 25.2131 122.206 25.2131C121.162 25.2131 120.235 24.9858 119.425 24.5312C118.616 24.0696 117.98 23.3949 117.518 22.5071C117.057 21.6193 116.826 20.5291 116.826 19.2365V8.63636H118.722V19.1193C118.722 20.3977 119.099 21.4276 119.851 22.2088C120.604 22.983 121.57 23.37 122.749 23.37C123.488 23.37 124.198 23.1925 124.88 22.8374C125.562 22.4822 126.123 21.9638 126.563 21.282C127.003 20.593 127.224 19.7479 127.224 18.7464ZM134.14 25V8.63636H135.983V11.1506H136.154C136.48 10.3054 137.024 9.64134 137.784 9.15838C138.551 8.66832 139.471 8.4233 140.543 8.4233C141.672 8.4233 142.599 8.68963 143.324 9.2223C144.055 9.74787 144.602 10.4723 144.964 11.3956H145.103C145.472 10.4865 146.072 9.76562 146.903 9.23295C147.741 8.69318 148.757 8.4233 149.95 8.4233C151.47 8.4233 152.67 8.9027 153.551 9.86151C154.431 10.8132 154.872 12.2053 154.872 14.0376V25H152.975V14.0376C152.975 12.745 152.645 11.7756 151.985 11.1293C151.324 10.483 150.454 10.1598 149.375 10.1598C148.125 10.1598 147.162 10.5433 146.488 11.3104C145.813 12.0774 145.475 13.0504 145.475 14.2294V25H143.537V13.8672C143.537 12.7592 143.228 11.8643 142.61 11.1825C141.992 10.5007 141.122 10.1598 140 10.1598C139.247 10.1598 138.569 10.3445 137.965 10.7138C137.368 11.0831 136.896 11.598 136.548 12.2585C136.207 12.9119 136.037 13.6648 136.037 14.517V25H134.14ZM164.463 25.3729C163.475 25.3729 162.573 25.1811 161.757 24.7976C160.94 24.407 160.29 23.8459 159.807 23.1143C159.324 22.3757 159.083 21.4808 159.083 20.4297C159.083 19.62 159.235 18.9382 159.541 18.3842C159.846 17.8303 160.279 17.3757 160.84 17.0206C161.401 16.6655 162.066 16.3849 162.833 16.179C163.6 15.973 164.445 15.8132 165.368 15.6996C166.284 15.5859 167.058 15.4865 167.691 15.4013C168.33 15.3161 168.816 15.1811 169.15 14.9964C169.484 14.8118 169.651 14.5135 169.651 14.1016V13.718C169.651 12.603 169.317 11.7259 168.649 11.0866C167.989 10.4403 167.037 10.1172 165.794 10.1172C164.615 10.1172 163.653 10.3764 162.907 10.8949C162.169 11.4134 161.65 12.0241 161.352 12.7273L159.551 12.0774C159.921 11.1825 160.432 10.4687 161.085 9.93608C161.739 9.39631 162.47 9.00923 163.28 8.77486C164.09 8.53338 164.91 8.41264 165.741 8.41264C166.366 8.41264 167.016 8.49432 167.691 8.65767C168.372 8.82102 169.004 9.10511 169.587 9.50994C170.169 9.90767 170.642 10.4652 171.004 11.1825C171.366 11.8928 171.547 12.7947 171.547 13.8885V25H169.651V22.4112H169.534C169.306 22.8942 168.969 23.3629 168.521 23.8175C168.074 24.272 167.513 24.6449 166.838 24.9361C166.164 25.2273 165.372 25.3729 164.463 25.3729ZM164.718 23.6364C165.727 23.6364 166.6 23.4126 167.339 22.9652C168.078 22.5178 168.646 21.9247 169.044 21.1861C169.448 20.4403 169.651 19.62 169.651 18.7251V16.3601C169.509 16.495 169.271 16.6158 168.937 16.7223C168.61 16.8288 168.23 16.9247 167.797 17.0099C167.371 17.0881 166.945 17.1555 166.519 17.2124C166.093 17.2692 165.709 17.3189 165.368 17.3615C164.445 17.4751 163.656 17.6527 163.003 17.8942C162.35 18.1357 161.849 18.4695 161.501 18.8956C161.153 19.3146 160.979 19.8544 160.979 20.5149C160.979 21.5092 161.334 22.2798 162.044 22.8267C162.754 23.3665 163.646 23.6364 164.718 23.6364ZM176.591 25V8.63636H178.434V11.1506H178.573C178.9 10.3267 179.468 9.66264 180.278 9.15838C181.094 8.64702 182.018 8.39133 183.047 8.39133C183.204 8.39133 183.378 8.39489 183.569 8.40199C183.761 8.40909 183.921 8.41619 184.049 8.4233V10.3516C183.964 10.3374 183.814 10.3161 183.601 10.2876C183.388 10.2592 183.157 10.245 182.909 10.245C182.057 10.245 181.297 10.4261 180.629 10.7884C179.969 11.1435 179.447 11.6371 179.063 12.2692C178.68 12.9013 178.488 13.6222 178.488 14.4318V25H176.591Z" fill="white"/>
<path d="M191.207 25.2557C190.537 25.2557 189.957 25.017 189.469 24.5398C188.991 24.0511 188.753 23.4716 188.753 22.8011C188.753 22.1193 188.991 21.5398 189.469 21.0625C189.957 20.5852 190.537 20.3466 191.207 20.3466C191.889 20.3466 192.469 20.5852 192.946 21.0625C193.423 21.5398 193.662 22.1193 193.662 22.8011C193.662 23.2443 193.548 23.6534 193.321 24.0284C193.105 24.4034 192.81 24.7045 192.435 24.9318C192.071 25.1477 191.662 25.2557 191.207 25.2557Z" fill="#FF0000"/>
</g>
<defs>
<filter id="filter0_d_13_6" x="0.224426" y="0.935364" width="199.438" height="31.4375" filterUnits="userSpaceOnUse" color-interpolation-filters="sRGB">
<feFlood flood-opacity="0" result="BackgroundImageFix"/>
<feColorMatrix in="SourceAlpha" type="matrix" values="0 0 0 0 0 0 0 0 0 0 0 0 0 0 0 0 0 0 127 0" result="hardAlpha"/>
<feOffset dx="2" dy="3"/>
<feGaussianBlur stdDeviation="2"/>
<feComposite in2="hardAlpha" operator="out"/>
<feColorMatrix type="matrix" values="0 0 0 0 0.838333 0 0 0 0 0.820169 0 0 0 0 0.820169 0 0 0 0.25 0"/>
<feBlend mode="normal" in2="BackgroundImageFix" result="effect1_dropShadow_13_6"/>
<feBlend mode="normal" in="SourceGraphic" in2="effect1_dropShadow_13_6" result="shape"/>
</filter>
</defs>
</svg>
